<?xml version="1.0" encoding="UTF-8"?>
<svg id="Layer_2" data-name="Layer 2" xmlns="http://www.w3.org/2000/svg" viewBox="0 0 551.13 108.81">
  <defs>
    <style>
      .cls-1, .cls-2 {
        stroke-width: 0px;
      }

      .cls-2 {
        fill: none;
      }
    </style>
  </defs>
  <g id="Layer_1-2" data-name="Layer 1">
    <g>
      <path class="cls-1" d="m191.12,30.21l-19.54,57.69h-20.81l-19.89-57.69h12.14l18.27,53.76,18.04-53.76h11.79Z"/>
      <path class="cls-1" d="m190.89,59c0-17.23,9.94-29.94,26.94-29.94,12.72,0,20.46,6.36,24.16,14.57v-13.41h11.91v57.69h-11.91v-13.41c-3.93,8.67-11.79,14.57-24.16,14.57-17,0-26.94-12.72-26.94-30.06Zm30.99,19.77c10.98,0,19.89-6.47,19.89-19.77s-8.9-19.65-19.89-19.65-19.08,6.24-19.08,19.65,8.09,19.77,19.08,19.77Z"/>
      <path class="cls-1" d="m259.33,77.61h16.07V13.22h-12.37V2.93h17.57c4.39,0,6.71,2.2,6.71,6.47v68.21h16.19v10.29h-44.17v-10.29Z"/>
      <path class="cls-1" d="m331.7,29.06c17.57,0,28.79,10.52,28.79,28.33v4.05h-45.21c.46,10.52,6.01,18.15,17,18.15,9.25,0,14.8-4.51,16.65-11.91h11.79c-2.2,11.1-10.52,21.39-28.21,21.39-18.96,0-29.02-13.41-29.02-30.64,0-18.61,11.45-29.37,28.21-29.37Zm17.11,24.63c-.69-9.83-7.28-15.38-17-15.38-9.02,0-15.72,5.55-16.53,15.38h33.53Z"/>
      <path class="cls-1" d="m367.89,30.21h11.91v15.38c3.01-10.17,11.1-16.53,23.7-16.53,13.53,0,21.62,8.9,21.62,24.97v33.88h-12.02v-32.49c0-11.56-4.16-16.07-13.76-16.07-12.02,0-19.54,9.02-19.54,24.74v23.82h-11.91V30.21Z"/>
      <path class="cls-1" d="m461.19,29.06c12.49,0,26.71,7.05,28.09,23.59h-12.02c-1.5-9.37-7.98-13.3-16.07-13.3-11.91,0-18.15,8.67-18.15,19.65s6.24,19.77,18.15,19.77c8.09,0,14.57-3.93,16.07-13.3h12.02c-1.39,16.65-15.61,23.59-28.09,23.59-18.61,0-30.06-12.6-30.06-30.06s11.45-29.94,30.06-29.94Z"/>
      <path class="cls-1" d="m522.11,29.06c17.57,0,28.79,10.52,28.79,28.33v4.05h-45.21c.46,10.52,6.01,18.15,17,18.15,9.25,0,14.8-4.51,16.65-11.91h11.79c-2.2,11.1-10.52,21.39-28.21,21.39-18.96,0-29.02-13.41-29.02-30.64,0-18.61,11.45-29.37,28.21-29.37Zm17.11,24.63c-.69-9.83-7.28-15.38-17-15.38-9.02,0-15.72,5.55-16.53,15.38h33.53Z"/>
    </g>
    <g>
      <g>
        <path class="cls-1" d="m108.81,54.41c0,1.48-.06,2.95-.18,4.41l-15.35-4.78-11.39-3.54-31.39-9.77v-24.09l3.54-1.11,27.13-8.5c3.97,2.25,7.64,4.98,10.91,8.13l-38.36,11.97v3.22l54.61,16.81c.32,2.37.48,4.79.48,7.25Z"/>
        <path class="cls-1" d="m58.82.18l-4.78,15.35-3.54,11.37-9.78,31.41h-24.08l-1.11-3.53L7.03,27.65c2.25-3.98,4.99-7.65,8.13-10.92l11.97,38.36h3.22L47.16.48c2.37-.32,4.79-.48,7.25-.48,1.48,0,2.95.06,4.41.18Z"/>
        <path class="cls-1" d="m58.31,68.09v24.08l-3.53,1.11-27.14,8.5c-3.97-2.25-7.63-4.99-10.9-8.13l38.35-11.97v-3.22L.48,61.65c-.32-2.37-.48-4.79-.48-7.24,0-1.48.06-2.95.18-4.41l15.35,4.78,11.35,3.53,31.43,9.78Z"/>
        <path class="cls-1" d="m101.78,81.17c-2.25,3.98-4.98,7.64-8.13,10.91l-11.97-38.36h-3.22l-16.81,54.61c-2.37.32-4.79.48-7.24.48-1.48,0-2.96-.06-4.41-.18l4.78-15.35,3.53-11.35,9.78-31.43h24.08l1.11,3.54,8.5,27.13Z"/>
        <path class="cls-1" d="m108.81,54.41c0,1.48-.06,2.95-.18,4.41l-15.35-4.78-11.39-3.54-31.39-9.77v-24.09l3.54-1.11,27.13-8.5c3.97,2.25,7.64,4.98,10.91,8.13l-38.36,11.97v3.22l54.61,16.81c.32,2.37.48,4.79.48,7.25Z"/>
        <path class="cls-1" d="m58.82.18l-4.78,15.35-3.54,11.37-9.78,31.41h-24.08l-1.11-3.53L7.03,27.65c2.25-3.98,4.99-7.65,8.13-10.92l11.97,38.36h3.22L47.16.48c2.37-.32,4.79-.48,7.25-.48,1.48,0,2.95.06,4.41.18Z"/>
      </g>
      <g>
        <path class="cls-1" d="m108.81,54.41c0,1.48-.06,2.95-.18,4.41l-15.35-4.78-11.39-3.54-31.39-9.77v-24.09l3.54-1.11,27.13-8.5c3.97,2.25,7.64,4.98,10.91,8.13l-38.36,11.97v3.22l54.61,16.81c.32,2.37.48,4.79.48,7.25Z"/>
        <path class="cls-1" d="m58.82.18l-4.78,15.35-3.54,11.37-9.78,31.41h-24.08l-1.11-3.53L7.03,27.65c2.25-3.98,4.99-7.65,8.13-10.92l11.97,38.36h3.22L47.16.48c2.37-.32,4.79-.48,7.25-.48,1.48,0,2.95.06,4.41.18Z"/>
        <path class="cls-1" d="m58.31,68.09v24.08l-3.53,1.11-27.14,8.5c-3.97-2.25-7.63-4.99-10.9-8.13l38.35-11.97v-3.22L.48,61.65c-.32-2.37-.48-4.79-.48-7.24,0-1.48.06-2.95.18-4.41l15.35,4.78,11.35,3.53,31.43,9.78Z"/>
        <path class="cls-1" d="m101.78,81.17c-2.25,3.98-4.98,7.64-8.13,10.91l-11.97-38.36h-3.22l-16.81,54.61c-2.37.32-4.79.48-7.24.48-1.48,0-2.96-.06-4.41-.18l4.78-15.35,3.53-11.35,9.78-31.43h24.08l1.11,3.54,8.5,27.13Z"/>
        <path class="cls-1" d="m108.81,54.41c0,1.48-.06,2.95-.18,4.41l-15.35-4.78-11.39-3.54-31.39-9.77v-24.09l3.54-1.11,27.13-8.5c3.97,2.25,7.64,4.98,10.91,8.13l-38.36,11.97v3.22l54.61,16.81c.32,2.37.48,4.79.48,7.25Z"/>
        <path class="cls-1" d="m58.82.18l-4.78,15.35-3.54,11.37-9.78,31.41h-24.08l-1.11-3.53L7.03,27.65c2.25-3.98,4.99-7.65,8.13-10.92l11.97,38.36h3.22L47.16.48c2.37-.32,4.79-.48,7.25-.48,1.48,0,2.95.06,4.41.18Z"/>
      </g>
    </g>
    <path class="cls-2" d="m108.63,58.82l-15.35-4.78,8.5,27.13c-2.25,3.98-4.98,7.64-8.13,10.91l-11.97-38.36h-3.22l-16.81,54.61c-2.37.32-4.79.48-7.24.48-1.48,0-2.96-.06-4.41-.18l4.78-15.35-27.14,8.5c-3.97-2.25-7.63-4.99-10.9-8.13l38.35-11.97v-3.22L.48,61.65c-.32-2.37-.48-4.79-.48-7.24,0-1.48.06-2.95.18-4.41l15.35,4.78L7.03,27.65c2.25-3.98,4.99-7.65,8.13-10.92l11.97,38.36h3.22L47.16.48c2.37-.32,4.79-.48,7.25-.48,1.48,0,2.95.06,4.41.18l-4.78,15.35,27.13-8.5c3.97,2.25,7.64,4.98,10.91,8.13l-38.36,11.97v3.22l54.61,16.81c.32,2.37.48,4.79.48,7.25,0,1.48-.06,2.95-.18,4.41Z"/>
  </g>
</svg>