<?xml version="1.0" encoding="UTF-8"?>
<svg id="Layer_2" data-name="Layer 2" xmlns="http://www.w3.org/2000/svg" viewBox="0 0 108.81 108.81">
  <defs>
    <style>
      .cls-1 {
        stroke-width: 0px;
      }
    </style>
  </defs>
  <g id="Layer_1-2" data-name="Layer 1">
    <g>
      <g>
        <path class="cls-1" d="m108.81,54.41c0,1.48-.06,2.95-.18,4.41l-15.35-4.78-11.39-3.54-31.39-9.77v-24.09l3.54-1.11,27.13-8.5c3.97,2.25,7.64,4.98,10.91,8.13l-38.36,11.97v3.22l54.61,16.81c.32,2.37.48,4.79.48,7.25Z"/>
        <path class="cls-1" d="m58.82.18l-4.78,15.35-3.54,11.37-9.78,31.41h-24.08l-1.11-3.53L7.03,27.65c2.25-3.98,4.99-7.65,8.13-10.92l11.97,38.36h3.22L47.16.48c2.37-.32,4.79-.48,7.25-.48,1.48,0,2.95.06,4.41.18Z"/>
        <path class="cls-1" d="m58.31,68.09v24.08l-3.53,1.11-27.14,8.5c-3.97-2.25-7.63-4.99-10.9-8.13l38.35-11.97v-3.22L.48,61.65c-.32-2.37-.48-4.79-.48-7.24,0-1.48.06-2.95.18-4.41l15.35,4.78,11.35,3.53,31.43,9.78Z"/>
        <path class="cls-1" d="m101.78,81.17c-2.25,3.98-4.98,7.64-8.13,10.91l-11.97-38.36h-3.22l-16.81,54.61c-2.37.32-4.79.48-7.24.48-1.48,0-2.96-.06-4.41-.18l4.78-15.35,3.53-11.35,9.78-31.43h24.08l1.11,3.54,8.5,27.13Z"/>
        <path class="cls-1" d="m108.81,54.41c0,1.48-.06,2.95-.18,4.41l-15.35-4.78-11.39-3.54-31.39-9.77v-24.09l3.54-1.11,27.13-8.5c3.97,2.25,7.64,4.98,10.91,8.13l-38.36,11.97v3.22l54.61,16.81c.32,2.37.48,4.79.48,7.25Z"/>
        <path class="cls-1" d="m58.82.18l-4.78,15.35-3.54,11.37-9.78,31.41h-24.08l-1.11-3.53L7.03,27.65c2.25-3.98,4.99-7.65,8.13-10.92l11.97,38.36h3.22L47.16.48c2.37-.32,4.79-.48,7.25-.48,1.48,0,2.95.06,4.41.18Z"/>
      </g>
      <g>
        <path class="cls-1" d="m108.81,54.41c0,1.48-.06,2.95-.18,4.41l-15.35-4.78-11.39-3.54-31.39-9.77v-24.09l3.54-1.11,27.13-8.5c3.97,2.25,7.64,4.98,10.91,8.13l-38.36,11.97v3.22l54.61,16.81c.32,2.37.48,4.79.48,7.25Z"/>
        <path class="cls-1" d="m58.82.18l-4.78,15.35-3.54,11.37-9.78,31.41h-24.08l-1.11-3.53L7.03,27.65c2.25-3.98,4.99-7.65,8.13-10.92l11.97,38.36h3.22L47.16.48c2.37-.32,4.79-.48,7.25-.48,1.48,0,2.95.06,4.41.18Z"/>
        <path class="cls-1" d="m58.31,68.09v24.08l-3.53,1.11-27.14,8.5c-3.97-2.25-7.63-4.99-10.9-8.13l38.35-11.97v-3.22L.48,61.65c-.32-2.37-.48-4.79-.48-7.24,0-1.48.06-2.95.18-4.41l15.35,4.78,11.35,3.53,31.43,9.78Z"/>
        <path class="cls-1" d="m101.78,81.17c-2.25,3.98-4.98,7.64-8.13,10.91l-11.97-38.36h-3.22l-16.81,54.61c-2.37.32-4.79.48-7.24.48-1.48,0-2.96-.06-4.41-.18l4.78-15.35,3.53-11.35,9.78-31.43h24.08l1.11,3.54,8.5,27.13Z"/>
        <path class="cls-1" d="m108.81,54.41c0,1.48-.06,2.95-.18,4.41l-15.35-4.78-11.39-3.54-31.39-9.77v-24.09l3.54-1.11,27.13-8.5c3.97,2.25,7.64,4.98,10.91,8.13l-38.36,11.97v3.22l54.61,16.81c.32,2.37.48,4.79.48,7.25Z"/>
        <path class="cls-1" d="m58.82.18l-4.78,15.35-3.54,11.37-9.78,31.41h-24.08l-1.11-3.53L7.03,27.65c2.25-3.98,4.99-7.65,8.13-10.92l11.97,38.36h3.22L47.16.48c2.37-.32,4.79-.48,7.25-.48,1.48,0,2.95.06,4.41.18Z"/>
      </g>
    </g>
  </g>
</svg>